<svg fill="none" height="37" viewBox="0 0 37 37" width="37" xmlns="http://www.w3.org/2000/svg" xmlns:xlink="http://www.w3.org/1999/xlink"><clipPath id="a"><path d="m0 0h36.82v36.82h-36.82z"/></clipPath><g clip-path="url(#a)" fill="#2d4eab"><path d="m30.212 24.439c-1.003-.641-2.334-.346-2.975.656-2.304 3.604-6.224 5.756-10.489 5.756-6.861 0-12.439-5.58-12.439-12.439s5.578-12.43901 12.439-12.43901c3.639 0 7.018 1.576 9.363 4.27201l-2.605 1.981 7.621 1.033 1.042-7.62301-2.614 1.988c-3.164-3.768-7.809-5.962-12.807-5.962-9.234.001-16.748 7.516-16.748 16.74901 0 9.233 7.514 16.748 16.748 16.748 5.743 0 11.021-2.896 14.119-7.746.639-1.002.348-2.332-.655-2.974z"/><path d="m26.355 20.458c1.574-1.203 3.021-2.461 3.021-4.278 0-1.367-.971-2.422-2.774-2.422-1.012 0-2.037.328-2.748.768l.396 1.408c.466-.287 1.08-.521 1.873-.521s1.229.451 1.229 1.081c0 1.065-1.147 2.105-2.926 3.555l-1.916 1.479-.23 1.271h6.07l.313-1.682-3.187-.002v-.026z"/><path d="m35.781 19.132.984-5.225h-2.42l-4.24 5.416-.244 1.312h3.787l-.41 2.158h1.845l.411-2.158h1.055l.271-1.507h-1.039zm-1.435-1.928-.41 1.929h-1.857l.014-.027 1.465-1.886c.424-.589.766-1.147 1.162-1.75h.055c-.142.558-.306 1.172-.429 1.734z"/><path d="m21.922 13.18c-.216-.205-.559-.197-.763.019l-3.238 3.385c-.339-.219-.739-.346-1.174-.346-.024 0-.053.003-.078.004l-4.411-4.22c-.535-.516-1.388-.496-1.902.041s-.494 1.391.041 1.902l4.216 4.032c-.026.134-.04.272-.04.415 0 .468.148.898.398 1.254l-1.322 1.383c-.204.215-.196.555.019.762.104.101.238.148.371.148.144 0 .283-.056.39-.166l1.365-1.428c.289.143.612.224.955.224.176 0 .346-.021.51-.062l.993.949c.261.248.595.371.93.371.354 0 .709-.139.975-.414.513-.537.494-1.389-.043-1.901l-1.188-1.138c-.002-.371-.098-.721-.265-1.024l3.279-3.43c.203-.216.195-.553-.018-.76z"/></g></svg>