<svg height="17" viewBox="0 -.5 17 17" width="17" xmlns="http://www.w3.org/2000/svg"><g fill="#434343" fill-rule="evenodd" transform="translate(5)"><path d="m2.062 13.508c0 .248.21.451.467.451h3.912c.255 0 .559-.203.559-.451v-2.407l-4.938 2.056z"/><path d="m7.252 1h-1.252v-.984h-2.977v.984h-1.308c-.936 0-1.694.658-1.694 1.583v11.742c0 .924.759 1.675 1.694 1.675h5.536c.936 0 1.694-.751 1.694-1.675v-11.742c.001-.925-.757-1.583-1.693-1.583zm.748 13c0 .516-.484 1-1 1h-5c-.515 0-1.064-.484-1.064-1v-11c0-.514.55-1.051 1.064-1.051h5c.516 0 1 .536 1 1.051z"/></g></svg>