<svg enable-background="new 0 0 512 512" viewBox="0 0 512 512" xmlns="http://www.w3.org/2000/svg"><path d="m283.49 255.999 109.972-114.048c3.556-3.689 3.613-9.5.142-13.264l-115.925-125.586c-2.689-2.924-7.415-3.877-11.113-2.443-3.708 1.453-6.642 5.019-6.642 9v222.944l-127.793-133.048c-3.707-3.83-9.561-3.953-13.41-.245-3.84 3.698-3.828 9.821-.12 13.66l137.989 143.029-137.895 143.03c-3.708 3.84-3.58 9.962.259 13.661 3.849 3.708 9.462 3.604 13.17-.245l127.8-133.048v222.944c0 3.981 2.934 7.547 6.642 9 1.142.443 2.59.66 3.769.66 2.642 0 5.361-1.085 7.219-3.104l115.989-125.586c3.472-3.764 3.446-9.575-.111-13.264zm-4.245-221.633 92.982 100.736-92.982 96.425zm0 443.266v-197.162l92.982 96.425z"/></svg>