<svg enable-background="new 0 0 503.934 503.934" viewBox="0 0 503.934 503.934" xmlns="http://www.w3.org/2000/svg"><path d="m310.723 268.699c-4.642 0-8.393 3.752-8.393 8.393 0 23.493-7.705 33.523-14.512 42.379-3.777 4.919-7.621 9.988-9.493 16.485h-1.88c-.63-11.415.965-19.196 2.434-26.137 2.224-10.534 4.323-20.472-2.426-36.067-1.838-4.247-6.782-6.211-11.029-4.365-4.255 1.838-6.22 6.782-4.373 11.037 4.616 10.685 3.408 16.418 1.402 25.927-1.578 7.479-3.425 16.527-2.803 29.604h-3.29c-5.019-7.705-4.768-14.143-4.407-22.671.453-10.651 1.024-23.913-9.703-40.708-2.493-3.903-7.68-5.053-11.591-2.56-3.903 2.493-5.053 7.68-2.552 11.591 7.873 12.33 7.504 20.967 7.076 30.955-.428 10.047-.789 21.361 8.393 34.312v56.337c0 27.774-22.595 50.361-50.361 50.361h-25.18c-27.774 0-50.361-22.587-50.361-50.47v-17.005c9.258 0 16.787-7.529 16.787-16.787v-33.574h33.574c9.258 0 16.787-7.529 16.787-16.787v-201.441c0-9.258-7.529-16.787-16.787-16.787h-8.393v-75.541c0-13.883-11.298-25.18-25.18-25.18h-83.936c-13.891 0-25.18 11.298-25.18 25.18v75.541h-8.393c-9.266 0-16.787 7.529-16.787 16.787v201.443c0 9.258 7.521 16.787 16.787 16.787h33.574v33.574c0 9.258 7.521 16.787 16.787 16.787v17.114c0 55.539 45.182 100.721 100.721 100.721h25.18c55.531 0 100.721-45.182 100.721-100.721v-58.863c0-.017-.017-.034-.017-.05 0-.025.017-.042.017-.059 0-4.935 2.468-8.385 7.202-14.546 7.588-9.879 17.979-23.409 17.979-52.602 0-4.642-3.761-8.394-8.394-8.394zm-268.59-167.978v-75.541c0-4.633 3.76-8.393 8.393-8.393h83.934c4.625 0 8.393 3.76 8.393 8.393v75.541zm19.238 173.803c-3.273-3.282-3.273-8.587 0-11.868l36.033-36.033h-30.091c-1.1 0-2.182-.227-3.215-.646-2.048-.848-3.685-2.484-4.532-4.541-.848-2.048-.848-4.365 0-6.413.42-1.032 1.041-1.956 1.813-2.736l50.352-50.352c3.282-3.282 8.595-3.282 11.877 0 3.273 3.282 3.273 8.586 0 11.868l-36.033 36.033h30.099c1.091 0 2.174.218 3.198.646 2.056.848 3.693 2.484 4.541 4.541.848 2.048.848 4.365 0 6.413-.42 1.032-1.041 1.956-1.813 2.736l-50.352 50.352c-1.645 1.637-3.794 2.459-5.934 2.459-2.149.001-4.298-.822-5.943-2.459zm14.336 94.787h-8.393v-33.574h50.361l.008 33.574h-8.402z"/><path d="m403.047.222h-50.361c-55.539 0-100.721 45.182-100.721 100.721v67.03c0 4.935-2.468 8.385-7.202 14.546-7.588 9.879-17.979 23.409-17.979 52.602 0 4.642 3.76 8.393 8.393 8.393s8.393-3.752 8.393-8.393c0-23.493 7.705-33.523 14.504-42.378 3.76-4.893 7.579-9.929 9.459-16.376h1.922c.613 11.356-.974 19.112-2.443 26.036-2.216 10.525-4.314 20.463 2.426 36.058 1.376 3.164 4.465 5.053 7.705 5.053 1.116 0 2.249-.218 3.332-.688 4.255-1.838 6.211-6.782 4.373-11.037-4.625-10.685-3.416-16.418-1.41-25.927 1.578-7.462 3.416-16.468 2.812-29.495h3.357c4.952 7.663 4.7 14.084 4.331 22.57-.453 10.651-1.016 23.913 9.703 40.7 1.603 2.51 4.314 3.878 7.084 3.878 1.544 0 3.114-.42 4.507-1.318 3.911-2.493 5.053-7.688 2.56-11.591-7.873-12.33-7.504-20.958-7.076-30.947.428-10.047.789-21.361-8.393-34.312v-64.403c0-27.774 22.587-50.361 50.361-50.361h50.361c27.774 0 50.361 22.587 50.361 50.361v394.492c0 4.642 3.76 8.393 8.393 8.393h33.574c4.633 0 8.393-3.752 8.393-8.393v-394.493c.002-55.54-45.18-100.721-100.719-100.721z"/></svg>