<svg fill="none" height="467" viewBox="0 0 467 467" width="467" xmlns="http://www.w3.org/2000/svg" xmlns:xlink="http://www.w3.org/1999/xlink"><clipPath id="a"><path d="m0 0h466.008v466.008h-466.008z"/></clipPath><g clip-path="url(#a)"><path d="m233.004 0c-128.78 0-233.004 104.212-233.004 233.004 0 128.781 104.212 233.004 233.004 233.004 128.782 0 233.004-104.212 233.004-233.004 0-128.782-104.212-233.004-233.004-233.004zm11.48 242.659-63.512 75.511c-5.333 6.34-14.797 7.156-21.135 1.824-6.34-5.333-7.157-14.795-1.824-21.135l59.991-71.325v-169.506c0-8.284 6.716-15 15-15s15 6.716 15 15v174.976c0 3.532-1.247 6.952-3.52 9.655z" fill="#2d4eab"/></g></svg>