<svg enable-background="new 0 0 83.208 83.208" viewBox="0 0 83.208 83.208" xmlns="http://www.w3.org/2000/svg"><g fill="#010002"><path d="m25.052 69.154-7.158 7.158h35.789l-7.158-7.158z"/><path d="m64.419 6.896c-7.831 0-14.537 4.814-17.357 11.631h-47.062v46.525h71.577v-22.01c6.814-2.82 11.631-9.53 11.631-17.357 0-10.36-8.428-18.789-18.789-18.789zm0 35.789c-9.373 0-17-7.627-17-17s7.627-17 17-17 17 7.627 17 17-7.627 17-17 17z"/><path d="m66.338 29.372.73-15.114h-5.304l.769 15.114z"/><path d="m64.434 31.039c-1.764 0-3.003 1.267-3.003 3.035 0 1.732 1.199 3.035 3.003 3.035s2.97-1.303 2.97-3.035c-.036-1.768-1.202-3.035-2.97-3.035z"/></g></svg>