<svg fill="none" height="504" viewBox="0 0 504 504" width="504" xmlns="http://www.w3.org/2000/svg" xmlns:xlink="http://www.w3.org/1999/xlink"><clipPath id="a"><path d="m0 0h503.607v503.607h-503.607z"/></clipPath><g clip-path="url(#a)" fill="#2d4eab"><path d="m478.67 417.993c-50.352-26.498-88.87-41.212-123.081-47.02l3.727-5.12c1.46-2.014 1.956-4.558 1.36-6.967l-7.798-31.165c20.883-29.444 33.221-66.224 33.221-101.099v-33.574h8.393 16.787c4.642 0 8.393-3.76 8.393-8.393 0-4.642-3.752-8.393-8.393-8.393h-8.393v-8.393c0-23.384-5.506-45.409-15.377-64.999l-75.365 14.487c-.529.101-1.058.151-1.586.151-2.199 0-4.339-.873-5.926-2.451-1.964-1.972-2.837-4.784-2.317-7.521l13.765-72.268c-7.109-3.198-14.537-5.968-22.31-8.175v-1.779c0-13.958-11.356-25.314-25.314-25.314h-33.297c-13.967 0-25.323 11.356-25.323 25.315v1.779c-7.764 2.208-15.192 4.977-22.301 8.175l13.765 72.268c.52 2.736-.353 5.548-2.317 7.521-1.586 1.578-3.727 2.451-5.934 2.451-.529 0-1.058-.05-1.586-.151l-75.356-14.487c-9.871 19.59-15.385 41.615-15.385 64.999v8.393h-8.393c-4.633 0-8.393 3.752-8.393 8.393 0 4.633 3.76 8.393 8.393 8.393h16.787 8.393v33.574c0 34.875 12.347 71.655 33.221 101.099l-7.789 31.165c-.604 2.409-.101 4.952 1.36 6.967l3.727 5.12c-34.212 5.808-72.729 20.522-123.081 47.02-15.387 8.091-24.947 23.929-24.947 41.329v35.89c0 4.633 3.76 8.393 8.393 8.393h201.443.008 3.139c.008 0 .008-.008.017-.008l77.253-.067c.134.008.243.076.378.076h204.582c4.642 0 8.393-3.76 8.393-8.393v-35.89c.001-17.401-9.551-33.239-24.936-41.331zm-344.375-191.37v-33.574h235.016v33.574c0 37.796-13.371 71.059-33.146 96.004-.294.285-.68.462-.932.789-2.887 3.693-5.875 7.176-8.947 10.45-.017.017-.034.034-.05.05-2.04 2.157-4.163 4.079-6.278 6.052-20.514 18.499-44.88 29.344-68.155 29.344-23.267 0-47.633-10.844-68.155-29.344-2.107-1.972-4.23-3.895-6.27-6.052-.017-.017-.034-.034-.05-.05-3.072-3.273-6.068-6.757-8.956-10.45-.252-.327-.63-.504-.923-.789-19.775-24.945-33.154-58.208-33.154-96.004zm25.885 132.524 3.769-15.058c.017.025.042.042.059.059 20.287 22.066 46.097 37.611 75.188 41.145.017 0 .034.008.05.008l-22.78 51.242zm59.904 127.664 5.028-25.172h53.391l2.132 10.635 2.896 14.479zm67.064-50.268-22.78-51.242c.017 0 .034-.008.05-.008 29.092-3.534 54.902-19.078 75.188-41.145.017-.017.042-.034.059-.059l3.769 15.058z"/><path d="m331.617 43.415-10.5 55.111 57.436-11.046c-11.927-17.718-27.874-32.734-46.936-44.065z"/><path d="m171.996 43.415c-19.062 11.331-35.009 26.347-46.936 44.066l57.436 11.046z"/></g></svg>