<svg enable-background="new 0 0 192 192" viewBox="0 0 192 192" xmlns="http://www.w3.org/2000/svg"><path d="m165.563 69.663c-2.031-2.032-5.043-2.723-7.758-1.784-2.714.94-4.653 3.348-4.992 6.201-.005.042-.665 4.356-3.325 6.998-.527.523-1.115.992-1.733 1.41-1.781-10.63-5.977-27.957-15.556-42.325-15.201-22.802-44.925-29.846-46.183-30.134-3.433-.789-7.097.8-8.603 3.983-1.494 3.157-.754 6.806 1.976 8.968.519.531 3.678 4.061 3.401 10.982-.219 5.479-2.434 7.757-10.08 14.81-2.312 2.133-4.933 4.55-7.853 7.47-4.757 4.756-8.467 9.828-11.287 14.433-.14-.228-.282-.454-.427-.678-5.278-8.21-20.207-13.514-23.146-14.494-3.343-1.115-7.356-.115-9.16 2.916-1.758 2.956-1.602 6.369.797 8.769.493 1.026 2.303 5.577 1.705 16.042-.297 5.195-4.604 11.472-9.163 18.118-6.645 9.682-14.176 20.658-14.176 34.448 0 24.329 23.715 43.876 24.724 44.697 1.337 1.086 3.007 1.679 4.729 1.679h35.217c2.75 0 5.28-1.505 6.592-3.923 1.312-2.417 1.195-5.358-.303-7.665-3.029-4.661-11.106-18.975-12.086-29.108-.26-2.68-.187-5.492.085-8.249 5.352 6.953 11.53 10.203 12.421 10.648 2.356 1.179 5.158 1.033 7.38-.38 2.223-1.415 3.541-3.892 3.471-6.525-.118-4.468.242-18.056 3.276-27.16 1.128-3.385 3.58-6.872 6.331-9.983.452 2.115 1.029 4.433 1.762 6.959 2.687 9.253 11.509 15 20.042 20.557 8.105 5.279 16.487 10.738 18.873 18.446 4.178 13.497-8.389 22.301-8.887 22.643-2.75 1.833-3.976 5.25-3.018 8.414.958 3.163 3.873 5.327 7.178 5.327h37.504c1.603 0 3.164-.514 4.454-1.466.909-.67 22.255-16.818 22.255-50.855 0-33.368-25.357-59.109-26.437-60.189z"/></svg>