<svg enable-background="new 0 0 361.875 361.875" viewBox="0 0 361.875 361.875" xmlns="http://www.w3.org/2000/svg"><path d="m336.875 49.448h-311.875c-13.785 0-25 11.215-25 25v212.98c0 13.785 11.215 25 25 25h311.875c13.785 0 25-11.215 25-25 0-7.763 0-201.479 0-212.98 0-13.786-11.215-25-25-25zm15 237.98c0 8.271-6.728 15-15 15h-311.875c-8.271 0-15-6.729-15-15v-170.96h341.875zm0-180.961h-341.875v-32.02c0-8.271 6.729-15 15-15h311.875c8.272 0 15 6.729 15 15z"/><path d="m38.85 177.49h21.854c5.29 0 9.579-4.289 9.579-9.579v-21.854c0-5.29-4.289-9.579-9.579-9.579h-21.854c-5.29 0-9.579 4.289-9.579 9.579v21.854c0 5.29 4.288 9.579 9.579 9.579z"/><path d="m91.314 177.49h21.854c5.29 0 9.579-4.289 9.579-9.579v-21.854c0-5.29-4.289-9.579-9.579-9.579h-21.854c-5.29 0-9.579 4.289-9.579 9.579v21.854c0 5.29 4.289 9.579 9.579 9.579z"/><path d="m143.779 177.49h21.854c5.29 0 9.579-4.289 9.579-9.579v-21.854c0-5.29-4.289-9.579-9.579-9.579h-21.854c-5.29 0-9.579 4.289-9.579 9.579v21.854c0 5.29 4.288 9.579 9.579 9.579z"/><path d="m196.243 177.49h21.854c5.29 0 9.579-4.289 9.579-9.579v-21.854c0-5.29-4.289-9.579-9.579-9.579h-21.854c-5.29 0-9.579 4.289-9.579 9.579v21.854c0 5.29 4.289 9.579 9.579 9.579z"/><path d="m248.707 177.49h21.854c5.29 0 9.579-4.289 9.579-9.579v-21.854c0-5.29-4.289-9.579-9.579-9.579h-21.854c-5.29 0-9.579 4.289-9.579 9.579v21.854c0 5.29 4.289 9.579 9.579 9.579z"/><path d="m301.172 177.49h21.854c5.29 0 9.579-4.289 9.579-9.579v-21.854c0-5.29-4.288-9.579-9.579-9.579h-21.854c-5.29 0-9.579 4.289-9.579 9.579v21.854c0 5.29 4.289 9.579 9.579 9.579z"/><path d="m98.476 220.374v-21.854c0-5.29-4.289-9.579-9.579-9.579h-21.854c-5.29 0-9.579 4.289-9.579 9.579v21.854c0 5.29 4.288 9.579 9.579 9.579h21.854c5.29.001 9.579-4.288 9.579-9.579z"/><path d="m141.361 229.954c5.29 0 9.579-4.288 9.579-9.579v-21.854c0-5.29-4.289-9.579-9.579-9.579h-21.854c-5.29 0-9.579 4.289-9.579 9.579v21.854c0 5.29 4.289 9.579 9.579 9.579z"/><path d="m193.826 229.954c5.29 0 9.579-4.288 9.579-9.579v-21.854c0-5.29-4.288-9.579-9.579-9.579h-21.854c-5.29 0-9.579 4.289-9.579 9.579v21.854c0 5.29 4.289 9.579 9.579 9.579z"/><path d="m246.29 229.954c5.29 0 9.579-4.288 9.579-9.579v-21.854c0-5.29-4.289-9.579-9.579-9.579h-21.854c-5.29 0-9.579 4.289-9.579 9.579v21.854c0 5.29 4.288 9.579 9.579 9.579z"/><path d="m298.754 229.954c5.29 0 9.579-4.288 9.579-9.579v-21.854c0-5.29-4.289-9.579-9.579-9.579h-21.854c-5.29 0-9.579 4.289-9.579 9.579v21.854c0 5.29 4.289 9.579 9.579 9.579z"/><path d="m38.85 282.418h21.854c5.29 0 9.579-4.289 9.579-9.579v-21.853c0-5.29-4.289-9.579-9.579-9.579h-21.854c-5.29 0-9.579 4.289-9.579 9.579v21.853c0 5.29 4.288 9.579 9.579 9.579z"/><path d="m323.025 241.407h-21.854c-5.29 0-9.579 4.289-9.579 9.579v21.853c0 5.29 4.289 9.579 9.579 9.579h21.854c5.29 0 9.579-4.289 9.579-9.579v-21.853c0-5.29-4.288-9.579-9.579-9.579z"/><path d="m270.561 241.407h-179.247c-5.29 0-9.579 4.289-9.579 9.579v21.853c0 5.29 4.289 9.579 9.579 9.579h179.247c5.29 0 9.579-4.289 9.579-9.579v-21.853c0-5.29-4.289-9.579-9.579-9.579z"/></svg>