<svg fill="none" height="58" viewBox="0 0 58 58" width="58" xmlns="http://www.w3.org/2000/svg"><g fill="#2d4eab"><path d="m9.5 43c-2.757 0-5 2.243-5 5s2.243 5 5 5 5-2.243 5-5-2.243-5-5-5z"/><path d="m56.5 35c0-2.495-1.375-3.662-2.715-4.233 1.05-.917 1.715-2.266 1.715-3.767 0-2.757-2.243-5-5-5h-14.366l.729-3.41c.973-4.549.334-9.716.116-11.191-.518-3.493-3.607-7.399-6.966-7.399h-.239c-1.596 0-4.274.909-4.274 7 0 14.821-6.687 15-7 15h-1v-2h-16v38h16v-2h28c2.757 0 5-2.243 5-5 0-1.164-.4-2.236-1.069-3.087 2.314-.437 4.069-2.474 4.069-4.913 0-1.164-.4-2.236-1.069-3.087 2.314-.437 4.069-2.474 4.069-4.913zm-53 21v-34h12v34z"/></g></svg>