<svg enable-background="new 0 0 512 512" viewBox="0 0 512 512" xmlns="http://www.w3.org/2000/svg"><path d="m248.163 0h15.673v143.997h-15.673z"/><path d="m248.163 368.003h15.673v143.997h-15.673z"/><path d="m53.89 118.059h143.996v15.673h-143.996z" transform="matrix(.7071 .7071 -.7071 .7071 125.8931 -52.1423)"/><path d="m314.116 378.272h143.996v15.673h-143.996z" transform="matrix(-.7071 -.7071 .7071 -.7071 386.118 932.1534)"/><path d="m0 248.163h143.997v15.673h-143.997z"/><path d="m368.003 248.163h143.997v15.673h-143.997z"/><path d="m118.076 314.128h15.673v143.996h-15.673z" transform="matrix(-.7071 -.7071 .7071 -.7071 -58.0844 748.1925)"/><path d="m378.258 53.902h15.673v143.996h-15.673z" transform="matrix(.7071 .7071 -.7071 .7071 202.1094 -236.1349)"/><path d="m247.996 248.163h16v15.673h-16z"/><path d="m216.001 248.163h16v15.673h-16z"/><path d="m280.001 248.163h16.001v15.673h-16.001z"/></svg>