<svg enable-background="new 0 0 512 512" viewBox="0 0 512 512" xmlns="http://www.w3.org/2000/svg"><path d="m247.467 273.067c-14.114 0-25.6 11.486-25.6 25.6s11.486 25.6 25.6 25.6 25.6-11.486 25.6-25.6-11.486-25.6-25.6-25.6zm0 34.133c-4.702 0-8.533-3.831-8.533-8.533s3.831-8.533 8.533-8.533 8.533 3.831 8.533 8.533-3.831 8.533-8.533 8.533z"/><path d="m341.333 332.8v-59.733c9.412 0 17.067-7.654 17.067-17.067v-34.133c0-9.412-7.654-17.067-17.067-17.067h-34.133v-59.733c0-4.71-3.823-8.533-8.533-8.533s-8.533 3.823-8.533 8.533v59.733h-34.134v-59.733c0-4.71-3.823-8.533-8.533-8.533s-8.533 3.823-8.533 8.533v59.733h-34.134v-59.733c0-4.71-3.823-8.533-8.533-8.533s-8.533 3.823-8.533 8.533v59.733h-34.134c-9.412 0-17.067 7.654-17.067 17.067v34.133c0 9.412 7.654 17.067 17.067 17.067v59.733c0 23.526 19.14 42.667 42.667 42.667h102.4c23.526 0 42.666-19.141 42.666-42.667zm-170.666 0v-68.267c0-4.71-3.823-8.533-8.533-8.533h-8.534v-34.133h187.733v34.133h-8.533c-4.71 0-8.533 3.823-8.533 8.533v68.267c0 14.114-11.486 25.6-25.6 25.6h-102.4c-14.114 0-25.6-11.486-25.6-25.6z"/><path d="m256 0c-141.158 0-256 114.842-256 256 0 68.378 26.633 132.659 75.46 181.461 3.994 3.43 11.298 7.398 19.43 7.398 5.837 0 12.109-2.048 17.877-7.825 6.323-6.332 7.526-12.885 7.415-17.271-.273-10.769-8.388-18.406-9.003-18.944-38.671-38.698-59.979-90.12-59.979-144.819 0-112.922 91.878-204.8 204.8-204.8s204.8 91.878 204.8 204.8v136.533c0 37.641-30.626 68.267-68.267 68.267h-51.2c-37.641 0-68.267-30.635-68.267-68.284 0-4.71-3.823-8.533-8.533-8.533s-8.533 3.823-8.533 8.533c0 47.061 38.281 85.35 85.333 85.35h51.2c47.053 0 85.333-38.281 85.333-85.333v-136.533c0-122.334-99.533-221.867-221.867-221.867s-221.866 99.533-221.866 221.867c0 59.255 23.083 114.97 65.297 157.175.589.538 3.61 3.908 3.686 7.023.026.981-.196 2.543-2.415 4.77-5.7 5.7-12.305 1.05-13.653-.017-45.124-45.132-69.981-105.13-69.981-168.951 0-131.755 107.187-238.933 238.933-238.933s238.933 107.178 238.933 238.933v136.533c0 56.098-45.961 102.033-102.4 102.4h-51.2c-56.081 0-102.008-45.969-102.366-102.468-.026-4.71-4.139-8.192-8.585-8.482-4.719.026-8.516 3.874-8.482 8.585.428 65.86 54 119.432 119.433 119.432h51.251c65.852-.427 119.416-54.016 119.416-119.467v-136.533c0-141.158-114.842-256-256-256z"/></svg>