<svg enable-background="new 0 0 463 463" viewBox="0 0 463 463" xmlns="http://www.w3.org/2000/svg"><path d="m423.5 144h-40.5v-.5c0-17.369-14.131-31.5-31.5-31.5h-.5v-72.5c0-4.142-3.357-7.5-7.5-7.5h-224c-4.143 0-7.5 3.358-7.5 7.5v72.5h-.5c-17.369 0-31.5 14.13-31.5 31.5v.5h-40.5c-21.78 0-39.5 17.72-39.5 39.5v176c0 21.78 17.72 39.5 39.5 39.5h39.997c.17 0 .336-.014.503-.025v.525c0 17.369 14.131 31.5 31.5 31.5h240c17.369 0 31.5-14.131 31.5-31.5v-.5h40.5c21.78 0 39.5-17.72 39.5-39.5v-176c0-21.78-17.72-39.5-39.5-39.5zm-72.5-17h.5c9.098 0 16.5 7.402 16.5 16.5v.5h-17zm-224-7.442c0-.02.003-.039.003-.058s-.003-.039-.003-.059v-72.441h209v72.441c0 .02-.003.039-.003.058s.003.039.003.058v24.443h-209zm-32 23.942c0-9.098 7.402-16.5 16.5-16.5h.5v17h-17zm-32 15.5h337v80.5c0 9.098-7.402 16.5-16.5 16.5h-304c-9.098 0-16.5-7.402-16.5-16.5zm17 161h-8.5c-4.687 0-8.5-3.813-8.5-8.5s3.813-8.5 8.5-8.5h8.5zm288 7.442c0 .02-.003.039-.003.058s.003.039.003.058v71.942c0 9.098-7.402 16.5-16.5 16.5h-240c-9.098 0-16.5-7.402-16.5-16.5v-96.5h17v88.5c0 4.142 3.357 7.5 7.5 7.5h224c4.143 0 7.5-3.358 7.5-7.5v-88.5h17zm-241 56.558v-81h209v81zm321-24.5c0 13.509-10.99 24.5-24.5 24.5h-40.5v-49h8.5c12.958 0 23.5-10.542 23.5-23.5s-10.542-23.5-23.5-23.5h-320c-12.958 0-23.5 10.542-23.5 23.5s10.542 23.5 23.5 23.5h8.5v49.025c-.167-.011-.333-.025-.503-.025h-39.997c-13.51 0-24.5-10.991-24.5-24.5v-176c0-13.509 10.99-24.5 24.5-24.5h8.5v80.5c0 17.369 14.131 31.5 31.5 31.5h304c17.369 0 31.5-14.131 31.5-31.5v-80.5h8.5c13.51 0 24.5 10.991 24.5 24.5zm-65-39.5v-17h8.5c4.687 0 8.5 3.813 8.5 8.5s-3.813 8.5-8.5 8.5z"/><path d="m103.5 239c12.958 0 23.5-10.542 23.5-23.5s-10.542-23.5-23.5-23.5-23.5 10.542-23.5 23.5 10.542 23.5 23.5 23.5zm0-32c4.687 0 8.5 3.813 8.5 8.5s-3.813 8.5-8.5 8.5-8.5-3.813-8.5-8.5 3.813-8.5 8.5-8.5z"/><path d="m151.5 223h16c4.143 0 7.5-3.358 7.5-7.5s-3.357-7.5-7.5-7.5h-16c-4.143 0-7.5 3.358-7.5 7.5s3.357 7.5 7.5 7.5z"/><path d="m199.5 223h16c4.143 0 7.5-3.358 7.5-7.5s-3.357-7.5-7.5-7.5h-16c-4.143 0-7.5 3.358-7.5 7.5s3.357 7.5 7.5 7.5z"/><path d="m311.5 320h-160c-4.143 0-7.5 3.358-7.5 7.5s3.357 7.5 7.5 7.5h160c4.143 0 7.5-3.358 7.5-7.5s-3.357-7.5-7.5-7.5z"/><path d="m311.5 352h-160c-4.143 0-7.5 3.358-7.5 7.5s3.357 7.5 7.5 7.5h160c4.143 0 7.5-3.358 7.5-7.5s-3.357-7.5-7.5-7.5z"/></svg>