<svg fill="none" height="512" viewBox="0 0 512 512" width="512" xmlns="http://www.w3.org/2000/svg" xmlns:xlink="http://www.w3.org/1999/xlink"><clipPath id="a"><path d="m0 0h512v512h-512z"/></clipPath><g clip-path="url(#a)"><path d="m486.4 0c-14.114 0-25.6 11.486-25.6 25.6v93.867h-25.6v-65.963c0-10.684-8.695-19.371-19.371-19.371h-63.659c-10.675 0-19.371 8.687-19.371 19.371v65.963h-25.6v-65.963c0-10.684-8.695-19.371-19.371-19.371h-63.659c-10.675 0-19.371 8.687-19.371 19.371v65.963h-25.6v-65.963c0-10.684-8.695-19.371-19.371-19.371h-63.656c-10.675 0-19.371 8.687-19.371 19.371v65.963h-25.6v-93.867c0-14.114-11.486-25.6-25.6-25.6s-25.6 11.486-25.6 25.6v486.4h51.2v-51.2h25.6 102.4 25.6 102.4 25.6 102.4 25.6v51.2h51.2v-486.4c0-14.114-11.486-25.6-25.6-25.6zm-25.6 443.733h-25.6v-65.963c0-10.684-8.695-19.371-19.371-19.371h-63.659c-10.675 0-19.371 8.687-19.371 19.371v65.963h-25.6v-65.963c0-10.684-8.695-19.371-19.371-19.371h-63.659c-10.675 0-19.371 8.687-19.371 19.371v65.963h-25.6v-65.963c0-10.684-8.695-19.371-19.371-19.371h-63.656c-10.675 0-19.371 8.687-19.371 19.371v65.963h-25.6v-145.066h25.6 102.4 25.6 102.4 25.6 102.4 25.6zm0-162.133h-25.6v-65.963c0-10.684-8.695-19.371-19.371-19.371h-63.659c-10.675 0-19.371 8.687-19.371 19.371v65.963h-25.6v-65.963c0-10.684-8.695-19.371-19.371-19.371h-63.659c-10.675 0-19.371 8.687-19.371 19.371v65.963h-25.6v-65.963c0-10.684-8.695-19.371-19.371-19.371h-63.656c-10.675 0-19.371 8.687-19.371 19.371v65.963h-25.6v-145.067h25.6 102.4 25.6 102.4 25.6 102.4 25.6z" fill="#2d4eab"/></g></svg>