<svg enable-background="new 0 0 512 512" viewBox="0 0 512 512" xmlns="http://www.w3.org/2000/svg"><path d="m471.899 223.977c-.018 0-.034 0-.051 0-5.61 0-10.172 4.534-10.198 10.15-.088 18.076-12.751 35.417-35.657 48.828-2.376 1.391-4.851 2.702-7.375 3.97 36.374-67.861 65.667-136.147 65.667-180.08-.002-59.913-93.065-106.845-211.869-106.845s-211.868 46.932-211.868 106.844c0 18.791 5.362 42.039 14.341 67.801-16.928-14.644-26.687-31.954-26.775-50.012-.028-5.616-4.589-10.149-10.198-10.149-.017 0-.034 0-.051 0-5.632.028-10.177 4.616-10.149 10.249.161 33.07 22.798 63.05 60.358 83.758 22.98 53.967 57.041 114.447 89.117 166.864-4.324-1.959-8.483-4.072-12.409-6.37-22.906-13.411-35.57-30.752-35.657-48.828-.026-5.616-4.589-10.15-10.198-10.15-.017 0-.034 0-.051 0-5.632.028-10.177 4.616-10.149 10.248.124 25.575 16.372 49.132 45.749 66.333 11.899 6.967 25.434 12.564 40.064 16.675 36.21 57.372 66.406 100.008 69.567 104.451 1.913 2.69 5.01 4.287 8.31 4.287s6.397-1.597 8.31-4.287c4.645-6.529 67.653-95.509 122.353-192.549 12.016-3.855 23.202-8.743 33.22-14.608 29.378-17.2 45.624-40.757 45.749-66.333.026-5.632-4.518-10.221-10.15-10.247zm-82.674 74.062c-17.17 4.67-36.095 7.087-55.732 6.975-.017 0-.034 0-.051 0-5.61 0-10.171 4.534-10.198 10.149-.026 5.633 4.517 10.222 10.149 10.249.404.002.807.003 1.211.003 14.076 0 27.857-1.205 41.025-3.517-41.298 71.181-85.282 136.134-103.213 162.08-10.077-14.58-28.38-41.478-49.81-74.876 10.883 1.537 22.124 2.343 33.567 2.343.402 0 .809-.001 1.211-.003 5.632-.028 10.177-4.616 10.149-10.249-.028-5.616-4.589-10.149-10.198-10.149-.017 0-.034 0-.051 0-17.299.094-34.064-1.781-49.571-5.427-31.349-50.026-66.509-110.057-91.835-164.531 13.349 4.913 27.912 8.845 43.487 11.614.604.107 1.205.159 1.797.159 4.851 0 9.152-3.473 10.03-8.415.986-5.546-2.71-10.841-8.257-11.827-22.242-3.954-42.284-10.544-59.166-19.029-13.971-33.792-22.822-64.123-22.822-86.744 0-21.359 19.418-42.915 53.276-59.14 36.742-17.608 85.82-27.305 138.193-27.305s101.451 9.697 138.193 27.304c33.857 16.226 53.276 37.781 53.276 59.14 0 19.024-25.32 31.278-40.411 36.888-32.154 11.954-80.72 18.273-140.444 18.273-.151 0-.302.003-.453.01-15.626.699-60.51-1.622-80.179-20.436-6.543-6.258-9.723-13.783-9.723-23.003 0-21.808 39.196-33.218 77.914-33.218 18.041 0 35.447 2.53 47.752 6.945 11.766 4.22 15.941 8.966 15.941 11.748 0 5.633 4.567 10.199 10.199 10.199s10.199-4.566 10.199-10.199c0-9.3-5.11-22.218-29.453-30.95-14.64-5.251-34.044-8.142-54.638-8.142-24.286 0-47.038 3.981-64.064 11.21-28.306 12.017-34.247 29.693-34.247 42.406 0 14.876 5.39 27.576 16.022 37.744 25.115 24.024 73.234 26.172 89.635 26.172 2.737 0 4.593-.06 5.309-.088 62.915-.014 112.484-6.593 147.341-19.552 10.518-3.91 19.047-8.192 25.969-12.664-12.206 42.444-38.239 95.821-67.329 147.853z"/><path d="m212.591 216.784c-2.784.013-5.593-.013-8.361-.08-5.59-.146-10.306 4.318-10.442 9.95-.136 5.631 4.318 10.306 9.95 10.442 2.46.059 4.953.089 7.432.089.508 0 1.016-.001 1.523-.003 5.632-.029 10.177-4.617 10.148-10.25s-4.663-10.177-10.25-10.148z"/></svg>