<svg fill="none" height="60" viewBox="0 0 60 60" width="60" xmlns="http://www.w3.org/2000/svg" xmlns:xlink="http://www.w3.org/1999/xlink"><clipPath id="a"><path d="m0 0h60v60h-60z"/></clipPath><g clip-path="url(#a)" fill="#2d4eab"><path d="m5.11905 12.498c.138 0 .277-.028.411-.089.52-.235 1.071-.395 1.639-.473.547-.075.93-.579.854-1.127-.075-.547-.569-.93605-1.127-.85405-.758.10505-1.496.31705-2.19.63205-.503.228-.727.82-.499 1.323.167.369.531.588.912.588z"/><path d="m11.0291 11.879h2c.553 0 1-.447 1-1s-.447-1.00003-1-1.00003h-2c-.553 0-1 .44703-1 1.00003s.448 1 1 1z"/><path d="m42.942 5.87898-5.436-5.435997c-.43-.4299996-1.18-.4299996-1.609 0l-2.046 2.046997-2.046-2.045997c-.43-.4299996-1.18-.4299996-1.609 0l-5.436 5.434997h-16.76c-4.411 0-8 3.589-8 8.00002v4c0-.417.255-.773.617-.923.377.902.919 1.716 1.581 2.415.017.065.024.133.043.197.156.53-.147 1.086-.677 1.241-.095.028-.189.041-.282.041-.433 0-.831-.282-.959-.718-.215-.729-.323-1.486-.323-2.253v30c0-.553.447-1 1-1s1 .447 1 1c0 .575.081 1.144.241 1.689.156.53-.147 1.086-.677 1.241-.095.028-.189.041-.282.041-.433 0-.831-.282-.959-.718-.215-.729-.323-1.486-.323-2.253v4.848c0 3.943 3.209 7.152 7.152 7.152h52.848v-5c0 .553-.447 1-1 1h-2c-.553 0-1-.447-1-1s.447-1 1-1h2c.553 0 1 .447 1 1v-6.5h-13c-5.238 0-9.5-4.262-9.5-9.5s4.262-9.5 9.5-9.5h13v-4.5c0 .553-.447 1-1 1h-2c-.553 0-1-.447-1-1s.447-1 1-1h2c.553 0 1 .447 1 1v-3-2-14.00002zm8.058 48.00002h2c.553 0 1 .447 1 1s-.447 1-1 1h-2c-.553 0-1-.447-1-1s.447-1 1-1zm-6 0h2c.553 0 1 .447 1 1s-.447 1-1 1h-2c-.553 0-1-.447-1-1s.447-1 1-1zm-6 0h2c.553 0 1 .447 1 1s-.447 1-1 1h-2c-.553 0-1-.447-1-1s.447-1 1-1zm-2.298-51.41202 3.412 3.412 14 14.00002h-5.391l-11.267-11.26802c-.203-.197-.471-.306-.754-.306l-.472.024-11.55 11.55002h-5.39l15.976-15.97502zm-5.702 0 1.437 1.437-15.975 15.97502h-2.874l14-14.00002zm-23 5.412h14.76l-2.776 2.77602c-.104-.441-.482-.77602-.955-.77602h-2c-.553 0-1 .44702-1 1.00002s.447 1 1 1h1.73l-8 8h-2.759c-2.603 0-4.818-1.669-5.647-3.991.157-.446.353-.876.611-1.27.303-.462.173-1.082-.29-1.384-.19-.124-.406-.158-.616-.144.388-2.936 2.902-5.21102 5.942-5.21102zm-1.999 46.78502c-.168.367-.53.584-.91.584-.139 0-.28-.029-.415-.091-.693-.317-1.337-.731-1.914-1.231-.417-.362-.462-.994-.101-1.411.363-.417.994-.462 1.411-.101.433.376.916.687 1.436.925.502.229.722.823.493 1.325zm0-30c-.168.367-.53.584-.91.584-.139 0-.28-.029-.415-.091-.693-.317-1.337-.731-1.914-1.231-.417-.362-.462-.994-.101-1.411.363-.417.994-.462 1.411-.101.433.376.916.687 1.436.925.502.229.722.823.493 1.325zm4.999 31.215h-2c-.553 0-1-.447-1-1s.447-1 1-1h2c.553 0 1 .447 1 1s-.447 1-1 1zm0-30h-2c-.553 0-1-.447-1-1s.447-1 1-1h2c.553 0 1 .447 1 1s-.447 1-1 1zm6 30h-2c-.553 0-1-.447-1-1s.447-1 1-1h2c.553 0 1 .447 1 1s-.447 1-1 1zm0-30h-2c-.553 0-1-.447-1-1s.447-1 1-1h2c.553 0 1 .447 1 1s-.447 1-1 1zm6 30h-2c-.553 0-1-.447-1-1s.447-1 1-1h2c.553 0 1 .447 1 1s-.447 1-1 1zm0-30h-2c-.553 0-1-.447-1-1s.447-1 1-1h2c.553 0 1 .447 1 1s-.447 1-1 1zm6 30h-2c-.553 0-1-.447-1-1s.447-1 1-1h2c.553 0 1 .447 1 1s-.447 1-1 1zm0-30h-2c-.553 0-1-.447-1-1s.447-1 1-1h2c.553 0 1 .447 1 1s-.447 1-1 1zm6 30h-2c-.553 0-1-.447-1-1s.447-1 1-1h2c.553 0 1 .447 1 1s-.447 1-1 1zm0-30h-2c-.553 0-1-.447-1-1s.447-1 1-1h2c.553 0 1 .447 1 1s-.447 1-1 1zm6 0h-2c-.553 0-1-.447-1-1s.447-1 1-1h2c.553 0 1 .447 1 1s-.447 1-1 1zm6 0h-2c-.553 0-1-.447-1-1s.447-1 1-1h2c.553 0 1 .447 1 1s-.447 1-1 1zm6 0h-2c-.553 0-1-.447-1-1s.447-1 1-1h2c.553 0 1 .447 1 1s-.447 1-1 1zm3.942-6-8-8h.058c.553 0 1-.447 1-1s-.447-1.00002-1-1.00002h-2c-.017 0-.031.009-.048.01l-2.01-2.01h13.058v12.00002z"/><path d="m55 9.87897h-2c-.553 0-1 .44703-1 1.00003s.447 1 1 1h2c.553 0 1-.447 1-1s-.447-1.00003-1-1.00003z"/><path d="m40 38.879c0 3.859 3.141 7 7 7h13v-14h-13c-3.859 0-7 3.141-7 7zm12 0c0 2.206-1.794 4-4 4s-4-1.794-4-4 1.794-4 4-4 4 1.794 4 4z"/></g></svg>