<svg enable-background="new 0 0 240 240" viewBox="0 0 240 240" xmlns="http://www.w3.org/2000/svg"><path d="m120 152.16c29.386 0 53.293-23.907 53.293-53.294 0-29.388-23.907-53.296-53.293-53.296s-53.294 23.908-53.294 53.296c.001 29.387 23.908 53.294 53.294 53.294zm0-86.589c18.358 0 33.293 14.937 33.293 33.296 0 18.358-14.936 33.294-33.293 33.294-18.358 0-33.294-14.936-33.294-33.294 0-18.36 14.936-33.296 33.294-33.296zm-37.255 174.429 19.847-20.507h34.816l19.847 20.507h72.09l-41.425-69.284c19.768-18.642 30.947-44.37 30.947-71.849 0-54.515-44.352-98.867-98.867-98.867s-98.867 44.352-98.867 98.867c0 27.479 11.179 53.208 30.947 71.849l-41.425 69.284zm-11.577-79.204c-19.087-15.073-30.034-37.646-30.034-61.93-.001-43.487 35.379-78.866 78.866-78.866s78.867 35.379 78.867 78.867c0 24.284-10.947 46.857-30.034 61.93l-6.892 5.443 32.144 53.76h-28.353l-19.847-20.507h-51.77l-19.847 20.507h-28.352l32.144-53.761z"/></svg>