<svg enable-background="new 0 0 60 60" viewBox="0 0 60 60" xmlns="http://www.w3.org/2000/svg"><path d="m58 37.104v-33.104c0-.553-.448-1-1-1h-56c-.552 0-1 .447-1 1v44c0 .553.448 1 1 1h34.003c1.963 4.693 6.6 8 11.997 8 7.168 0 13-5.832 13-13 0-2.535-.74-4.895-2-6.896zm-23.641 9.896h-32.359v-42h54v29.622c-.17-.164-.354-.311-.532-.465-.088-.075-.171-.155-.261-.228-.235-.192-.48-.37-.728-.545-.092-.065-.181-.135-.275-.198-.245-.163-.498-.312-.754-.458-.109-.063-.214-.13-.325-.189-.077-.041-.154-.083-.232-.123.179-.385.112-.852-.218-1.154l-12-11c-.196-.179-.452-.277-.72-.262-.265.012-.515.129-.694.325l-9.794 10.727-4.743-4.743c-.374-.373-.972-.391-1.368-.044l-17.017 14.984c-.415.365-.455.997-.09 1.412.198.225.474.339.751.339.234 0 .47-.082.66-.249l16.313-14.362 10.302 10.301c.203.203.47.295.736.287-.65 1.546-1.011 3.243-1.011 5.023 0 .493.033.977.087 1.456.009.075.024.149.034.224.056.428.131.849.227 1.262.005.019.006.039.011.058zm14.42-15.864c-.162-.022-.321-.055-.485-.071-.427-.042-.859-.065-1.294-.065-4.773 0-8.942 2.593-11.203 6.437-.036-.054-.06-.114-.107-.162l-4.807-4.807 9.181-10.054 9.694 8.887c-.067-.015-.133-.032-.2-.045-.257-.052-.519-.084-.779-.12zm-1.779 23.864c-4.787 0-8.859-3.08-10.367-7.358-.094-.267-.176-.536-.249-.806-.015-.058-.03-.115-.045-.173-.06-.238-.112-.476-.156-.716-.024-.133-.042-.267-.061-.401-.026-.18-.054-.36-.071-.54-.03-.332-.051-.667-.051-1.006 0-6.065 4.935-11 11-11 .426 0 .848.031 1.265.079.127.015.25.039.375.057.291.044.579.096.863.162.141.033.281.07.421.108.268.074.531.159.792.253.134.048.269.094.4.147.295.119.583.255.866.399.083.042.17.077.252.121.342.185.671.393.992.614.131.09.255.19.382.286.199.15.395.305.584.469.127.11.251.224.373.339.193.184.379.377.559.575.094.103.191.202.281.309.261.311.51.634.739.976 1.171 1.749 1.856 3.849 1.856 6.106 0 6.065-4.935 11-11 11z"/><path d="m51.95 39.051c-.391-.391-1.023-.391-1.414 0l-3.536 3.535-3.536-3.535c-.391-.391-1.023-.391-1.414 0s-.391 1.023 0 1.414l3.536 3.535-3.536 3.535c-.391.391-.391 1.023 0 1.414.195.195.451.293.707.293s.512-.098.707-.293l3.536-3.535 3.536 3.535c.195.195.451.293.707.293s.512-.098.707-.293c.391-.391.391-1.023 0-1.414l-3.536-3.535 3.536-3.535c.39-.391.39-1.024 0-1.414z"/><path d="m16 25.138c3.071 0 5.569-2.498 5.569-5.568 0-3.072-2.498-5.57-5.569-5.57s-5.569 2.498-5.569 5.569 2.498 5.569 5.569 5.569zm0-9.138c1.968 0 3.569 1.602 3.569 3.569s-1.601 3.569-3.569 3.569-3.569-1.601-3.569-3.568 1.601-3.57 3.569-3.57z"/></svg>