<svg enable-background="new 0 0 330 330" viewBox="0 0 330 330" xmlns="http://www.w3.org/2000/svg"><path d="m165 232.5c-8.284 0-15 6.716-15 15v60c0 8.284 6.716 15 15 15s15-6.716 15-15v-60c0-8.284-6.716-15-15-15z"/><path d="m165 7.5c-8.284 0-15 6.716-15 15v30c0 8.284 6.716 15 15 15s15-6.716 15-15v-30c0-8.284-6.716-15-15-15z"/><path d="m90 157.5c0-8.284-6.716-15-15-15h-60c-8.284 0-15 6.716-15 15s6.716 15 15 15h60c8.284 0 15-6.716 15-15z"/><path d="m315 142.5h-60c-8.284 0-15 6.716-15 15s6.716 15 15 15h60c8.284 0 15-6.716 15-15s-6.716-15-15-15z"/><path d="m90.752 210.533-42.425 42.427c-5.857 5.858-5.857 15.355 0 21.213 2.929 2.929 6.768 4.393 10.607 4.393s7.678-1.464 10.607-4.393l42.426-42.427c5.857-5.858 5.857-15.355-.001-21.213s-15.355-5.858-21.214 0z"/><path d="m228.639 108.86c3.839 0 7.678-1.464 10.606-4.394l42.426-42.427c5.858-5.858 5.858-15.355 0-21.213-5.857-5.857-15.355-5.858-21.213 0l-42.426 42.427c-5.858 5.858-5.858 15.355 0 21.213 2.929 2.93 6.768 4.394 10.607 4.394z"/><path d="m239.245 210.533c-5.856-5.857-15.355-5.858-21.213-.001-5.858 5.858-5.858 15.355 0 21.213l42.426 42.427c2.929 2.929 6.768 4.393 10.607 4.393 3.838 0 7.678-1.465 10.606-4.393 5.858-5.858 5.858-15.355 0-21.213z"/></svg>