<svg enable-background="new 0 0 53.434 53.434" viewBox="0 0 53.434 53.434" xmlns="http://www.w3.org/2000/svg"><path d="m20.664 49.122h12.103c3.166 0 5.74-2.556 5.74-5.696v-37.729c0-3.142-2.574-5.697-5.74-5.697h-12.103c-3.164 0-5.738 2.556-5.738 5.697v37.729c.001 3.141 2.574 5.696 5.738 5.696zm-3.393-43.425c0-1.847 1.521-3.35 3.393-3.35h12.104c1.871 0 3.395 1.503 3.395 3.35v37.729c0 1.847-1.523 3.349-3.395 3.349h-12.104c-1.872-.001-3.393-1.503-3.393-3.349zm9.447 6.64c1.811 0 3.283-1.474 3.283-3.284 0-1.812-1.473-3.284-3.283-3.284-1.811 0-3.285 1.473-3.285 3.284-.001 1.81 1.473 3.284 3.285 3.284zm0-5.494c1.218 0 2.209.992 2.209 2.21s-.991 2.209-2.209 2.209c-1.219 0-2.21-.991-2.21-2.209-.001-1.218.99-2.21 2.21-2.21zm12.947 45.779c0 .449-.299.812-.67.812h-24.556c-.369 0-.67-.363-.67-.812s.301-.813.67-.812h24.555c.372 0 .671.363.671.812zm-6.186-18.069c0 .449-.149.812-.335.812h-12.276c-.185 0-.335-.363-.335-.812s.15-.812.335-.812h12.277c.186 0 .334.363.334.812zm0 4.784c0 .449-.149.812-.335.812h-12.276c-.185 0-.335-.363-.335-.812s.15-.812.335-.812h12.277c.186 0 .334.363.334.812zm1-22.756h-14.791v12.656h14.792v-12.656zm-2 10.656h-10.791v-8.656h10.792v8.656z" fill="#030104"/></svg>