<svg fill="none" height="24" viewBox="0 0 24 24" width="24" xmlns="http://www.w3.org/2000/svg"><path d="m4 5.25c0-1.79493 1.45507-3.25 3.25-3.25h5.4645c.8619 0 1.6886.34241 2.2981.9519l4.0355 4.03554c.6095.60949.9519 1.43614.9519 2.29809v9.46447c0 1.7949-1.4551 3.25-3.25 3.25h-9.5c-1.79493 0-3.25-1.4551-3.25-3.25zm3.75 8.75h4.25v-3.25h-2.75c-.82843 0-1.5.6716-1.5 1.5zm0 1.5v1.25c0 .8284.67157 1.5 1.5 1.5h2.75v-2.75zm5.75 2.75h1.25c.8284 0 1.5-.6716 1.5-1.5v-4.5c0-.8284-.6716-1.5-1.5-1.5h-1.25z" fill="#212121"/></svg>