<svg fill="none" height="24" viewBox="0 0 24 24" width="24" xmlns="http://www.w3.org/2000/svg"><g fill="#000"><path d="m16.5 21c-.1342-.0025-.2653-.0405-.38-.11l-9.12-5.39h-4.5c-.19811-.0026-.38737-.0825-.52747-.2226-.14009-.14-.21994-.3293-.22253-.5274v-5.50002c.00259-.19811.08244-.38737.22253-.52746.1401-.1401.32936-.21995.52747-.22254h4.5l9.16-5.38c.114-.06582.2433-.10048.375-.10048s.261.03466.375.10048c.1143.06601.2095.16066.2761.27464.0667.11397.1025.24334.1039.37536v16.47002c-.0014.132-.0372.2614-.1039.3753-.0666.114-.1618.2087-.2761.2747-.1241.0734-.2659.1114-.41.11zm-13.25-7h3.92c.1333-.001.26447.0335.38.1l8.2 4.82v-13.84002l-8.2 4.82c-.11553.06651-.2467.10102-.38.1h-3.92z"/><path d="m21.5 21.75c-.0985.0005-.1962-.0188-.2872-.0565-.091-.0378-.1736-.0934-.2428-.1635l-17.97-18.00001c-.09139-.14095-.13281-.30851-.11762-.47581.01518-.16731.0861-.32467.20138-.44687.11528-.12219.26824-.20215.43438-.22705s.33582.0067.48186.08973l18 18.00001c.1404.1406.2193.3312.2193.53 0 .1987-.0789.3894-.2193.53-.1325.1344-.3114.2131-.5.22z"/></g></svg>