<svg enable-background="new 0 0 420 420" height="420" viewBox="0 0 420 420" width="420" xmlns="http://www.w3.org/2000/svg"><path d="m314.606 357.373c-.001 0-.001 0 0 0-8.693 0-17.603-1.004-26.636-2.98h-241.241v-288.785h261.426v129.624c6.477-3.025 12.809-5.099 18.956-6.181.825-.146 1.649-.272 2.472-.382v-156.53c-.001-17.721-14.419-32.139-32.142-32.139h-240c-17.722 0-32.14 14.418-32.14 32.139v355.722c0 17.722 14.418 32.139 32.14 32.139h240c17.723 0 32.141-14.417 32.141-32.139v-31.519c-2.211.305-4.438.558-6.681.725-2.73.203-5.521.306-8.295.306zm-137.165 39.571c-7.544 0-13.659-6.115-13.659-13.659 0-7.543 6.115-13.659 13.659-13.659s13.659 6.116 13.659 13.659c.001 7.544-6.115 13.659-13.659 13.659z"/><path d="m393.479 269.643c-4.186-22.562-18.546-43.424-26.732-53.854-11.107-14.149-25.206-19.83-41.9-16.89-11.922 2.1-24.878 8.59-38.51 19.293-9.634 7.563-16.907 15.135-20.124 18.657-8.085-6.964-30.66-30.226-41.743-43.343-5.566-6.587-19.921-20.595-30.631-10.925-11.529 11.206 5.359 29.516 5.798 30.045l67.749 82.93c-.273.369-.58.688-.933.961-6.497 5.104-25.458-4.272-33.11-9.334-6.997-4.625-18.777-4.588-24.723.078-2.381 1.87-3.698 4.411-3.714 7.155-.02 3.951 2.566 8.036 7.674 12.129.056.046.158.138.307.263 7.55 6.47 28.028 22.58 55.071 32.496 17.335 6.358 34.224 8.979 50.201 7.791 19.817-1.478 38.287-8.832 54.888-21.864 17.808-13.984 24.682-32.688 20.432-55.588z"/><path d="m225.338 127.975c3.351 4.39 9.626 5.232 14.017 1.881 4.392-3.351 5.232-9.626 1.881-14.016-25.26-33.092-72.731-39.463-105.823-14.203-33.091 25.26-39.463 72.733-14.203 105.824 3.351 4.391 9.625 5.232 14.016 1.881s5.233-9.626 1.882-14.017c-18.569-24.326-13.885-59.222 10.44-77.791 24.325-18.568 59.222-13.885 77.79 10.441z"/><path d="m181.218 161.646c4.389-3.35 10.685-2.504 14.035 1.883 3.351 4.39 9.626 5.232 14.016 1.881 4.391-3.351 5.232-9.626 1.88-14.016-10.041-13.154-28.913-15.688-42.066-5.646-13.154 10.041-15.687 28.912-5.646 42.067 3.351 4.39 9.626 5.232 14.017 1.881s5.232-9.627 1.881-14.017c-3.35-4.387-2.505-10.683 1.883-14.033z"/></svg>