<svg enable-background="new 0 0 198.715 198.715" viewBox="0 0 198.715 198.715" xmlns="http://www.w3.org/2000/svg"><path d="m161.463 48.763c-2.929-2.929-7.677-2.929-10.607 0-2.929 2.929-2.929 7.677 0 10.606 13.763 13.763 21.342 32.062 21.342 51.526 0 19.463-7.579 37.761-21.342 51.523-14.203 14.204-32.857 21.305-51.516 21.303-18.659-.001-37.322-7.104-51.527-21.309-28.405-28.405-28.402-74.625.005-103.032 2.929-2.929 2.929-7.678 0-10.606-2.929-2.929-7.677-2.929-10.607 0-34.255 34.255-34.258 89.992-.005 124.245 17.132 17.132 39.632 25.697 62.135 25.696 22.497-.001 44.997-8.564 62.123-25.69 16.595-16.594 25.734-38.659 25.734-62.129.001-23.471-9.139-45.537-25.735-62.133z"/><path d="m99.332 97.164c4.143 0 7.5-3.358 7.5-7.5v-82.164c0-4.142-3.357-7.5-7.5-7.5s-7.5 3.358-7.5 7.5v82.164c0 4.143 3.357 7.5 7.5 7.5z"/></svg>