<svg enable-background="new 0 0 489.6 489.6" viewBox="0 0 489.6 489.6" xmlns="http://www.w3.org/2000/svg"><path d="m179.6 235.6c-33.7 10.3-65.5 28.5-92.2 55.1l46.6 46.6c13.9-13.9 30.1-24.8 47.6-32.5z"/><path d="m175.8 109c-64.5 13-125.9 44.4-175.8 94.3l46.6 46.6c37.5-37.5 83.1-61.9 131.2-73.7z"/><path d="m313.8 109-2 67.3c48.1 11.8 93.7 36.2 131.2 73.7l46.6-46.6c-49.8-50-111.3-81.4-175.8-94.4z"/><path d="m307.9 304.8c17.5 7.7 33.7 18.6 47.7 32.6l46.6-46.6c-26.6-26.6-58.5-44.9-92.2-55.2z"/><circle cx="244.8" cy="403.2" r="40"/><path d="m260.6 330.4h-31.7c-8.3 0-15.1-6.6-15.3-14.9l-7.6-253.3c-.3-8.6 6.7-15.8 15.3-15.8h47c8.6 0 15.6 7.1 15.3 15.8l-7.7 253.3c-.2 8.3-7 14.9-15.3 14.9z"/></svg>