<svg fill="none" height="5" viewBox="0 0 5 5" width="5" xmlns="http://www.w3.org/2000/svg"><path d="m1.61875 4.9125-.46667-.41667c-.00976-.00968-.01751-.0212-.0228-.0339-.00529-.01269-.00801-.0263-.00801-.04006 0-.01375.00272-.02736.00801-.04006.00529-.01269.01304-.02421.0228-.03389l1.64584-1.84792-1.65209-1.847918c-.00976-.009684-.01751-.021205-.0228-.033898-.00529-.012694-.00801-.026309-.00801-.04006 0-.013752.00272-.027367.00801-.04006.00529-.012694.01304-.024215.0228-.033899l.46667-.4166663c.00968-.0097634.0212-.0175128.0339-.0228012.01269-.0052884.02631-.0080111.04006-.0080111s.02736.0027227.04006.0080111c.01269.0052884.02421.0130378.0339.0228012l2.15625 2.4125013-2.15 2.40417c-.00912.01032-.0202.01874-.0326.02476-.0124.00601-.02586.00951-.03962.01028-.01376.00078-.02753-.00118-.04053-.00577-.01299-.00458-.02495-.0117-.03517-.02094z" fill="#2d4eab"/></svg>